<svg id="Capa_1" enable-background="new 0 0 512 512" height="512" viewBox="0 0 512 512" width="512" xmlns="http://www.w3.org/2000/svg" xmlns:xlink="http://www.w3.org/1999/xlink"><radialGradient id="SVGID_1_" cx="249.979" cy="229.301" gradientTransform="matrix(.821 0 0 1.978 48.432 -224.349)" gradientUnits="userSpaceOnUse" r="186.192"><stop offset="0" stop-color="#fff"/><stop offset=".5145" stop-color="#ecf4ff"/><stop offset="1" stop-color="#ddeafb"/></radialGradient><radialGradient id="SVGID_2_" cx="175.012" cy="458.604" gradientTransform="matrix(1 0 0 .786 0 98.006)" gradientUnits="userSpaceOnUse" r="79.226"><stop offset="0" stop-color="#ddeafb"/><stop offset=".4632" stop-color="#bed8fb"/><stop offset=".6165" stop-color="#adc9f2"/><stop offset=".92" stop-color="#80a3da"/><stop offset="1" stop-color="#7398d3"/></radialGradient><radialGradient id="SVGID_3_" cx="170.782" cy="333.454" gradientTransform="matrix(.821 0 0 1.978 48.432 -326.252)" gradientUnits="userSpaceOnUse" r="189.842"><stop offset="0" stop-color="#fff"/><stop offset=".5145" stop-color="#ddeafb"/><stop offset="1" stop-color="#cbe2ff"/></radialGradient><radialGradient id="SVGID_4_" cx="178.482" cy="192.994" gradientTransform="matrix(.821 0 0 1.978 48.432 -188.826)" gradientUnits="userSpaceOnUse" r="252.466"><stop offset="0" stop-color="#ddeafb"/><stop offset=".1335" stop-color="#d7e7fb"/><stop offset=".3124" stop-color="#c6ddfb"/><stop offset=".5163" stop-color="#aacdfb"/><stop offset=".5974" stop-color="#9dc6fb"/><stop offset="1" stop-color="#89aada"/></radialGradient><radialGradient id="SVGID_5_" cx="167.595" cy="283.738" gradientTransform="matrix(.821 0 0 1.978 48.432 -277.61)" gradientUnits="userSpaceOnUse" r="257.589"><stop offset="0" stop-color="#cbe2ff"/><stop offset=".1208" stop-color="#c5deff"/><stop offset=".2826" stop-color="#b4d4fe"/><stop offset=".467" stop-color="#98c3fc"/><stop offset=".5974" stop-color="#80b4fb"/><stop offset="1" stop-color="#7398d3"/></radialGradient><linearGradient id="lg1"><stop offset="0" stop-color="#daefc8"/><stop offset=".5145" stop-color="#aad880"/><stop offset=".7466" stop-color="#84be78"/><stop offset="1" stop-color="#5ea570"/></linearGradient><radialGradient id="SVGID_6_" cx="249.119" cy="335.942" gradientUnits="userSpaceOnUse" r="124.342" xlink:href="#lg1"/><linearGradient id="lg2"><stop offset="0" stop-color="#8bc852"/><stop offset=".1957" stop-color="#86c24d"/><stop offset=".4574" stop-color="#78b13e"/><stop offset=".5974" stop-color="#6ea533"/><stop offset="1" stop-color="#3b6945"/></linearGradient><radialGradient id="SVGID_7_" cx="251.223" cy="335.942" gradientUnits="userSpaceOnUse" r="152.116" xlink:href="#lg2"/><linearGradient id="lg3"><stop offset="0" stop-color="#e2f1d0"/><stop offset=".2031" stop-color="#deefca"/><stop offset=".4747" stop-color="#d2eab9"/><stop offset=".5974" stop-color="#cbe7af"/><stop offset="1" stop-color="#93c8a5"/></linearGradient><radialGradient id="SVGID_8_" cx="248.772" cy="366.464" gradientTransform="matrix(-1 0 0 -1.984 497.545 1093.382)" gradientUnits="userSpaceOnUse" r="127.482" xlink:href="#lg3"/><linearGradient id="lg4"><stop offset="0" stop-color="#9bd069"/><stop offset=".5618" stop-color="#7fbf3e"/><stop offset=".5981" stop-color="#7dbe3b"/><stop offset=".6746" stop-color="#79b93c"/><stop offset=".7712" stop-color="#6da93d"/><stop offset=".8785" stop-color="#598f41"/><stop offset=".993" stop-color="#3d6b45"/><stop offset="1" stop-color="#3b6945"/></linearGradient><radialGradient id="SVGID_9_" cx="224.529" cy="366.613" gradientUnits="userSpaceOnUse" r="158.879" xlink:href="#lg4"/><radialGradient id="SVGID_10_" cx="234.238" cy="176.585" gradientUnits="userSpaceOnUse" r="127.078"><stop offset="0" stop-color="#eaf6df"/><stop offset=".5145" stop-color="#aad880"/><stop offset=".7466" stop-color="#84be78"/><stop offset="1" stop-color="#5ea570"/></radialGradient><radialGradient id="SVGID_11_" cx="236.389" cy="176.585" gradientUnits="userSpaceOnUse" r="155.463" xlink:href="#lg2"/><radialGradient id="SVGID_12_" cx="233.884" cy="207.779" gradientTransform="matrix(-1 0 0 -1.984 467.768 619.93)" gradientUnits="userSpaceOnUse" r="130.286" xlink:href="#lg3"/><radialGradient id="SVGID_13_" cx="209.107" cy="207.931" gradientUnits="userSpaceOnUse" r="162.374" xlink:href="#lg4"/><radialGradient id="SVGID_14_" cx="181.513" cy="241.611" gradientUnits="userSpaceOnUse" r="108.239"><stop offset="0" stop-color="#fff"/><stop offset=".5145" stop-color="#daefc8"/><stop offset=".73" stop-color="#b9ddb8"/><stop offset="1" stop-color="#93c8a5"/></radialGradient><radialGradient id="SVGID_15_" cx="178.334" cy="241.611" gradientUnits="userSpaceOnUse" r="108.029" xlink:href="#lg1"/><radialGradient id="SVGID_16_" cx="181.893" cy="241.611" gradientUnits="userSpaceOnUse" r="132.323"><stop offset="0" stop-color="#cbe7af"/><stop offset=".1623" stop-color="#c7e5a9"/><stop offset=".3798" stop-color="#bbe098"/><stop offset=".5974" stop-color="#aad880"/><stop offset="1" stop-color="#528e61"/></radialGradient><radialGradient id="SVGID_17_" cx="180.162" cy="241.611" gradientUnits="userSpaceOnUse" r="132.158" xlink:href="#lg2"/><radialGradient id="SVGID_18_" cx="177.394" cy="268.129" gradientTransform="matrix(-1 0 0 -1.984 354.789 799.989)" gradientUnits="userSpaceOnUse" r="112.072"><stop offset="0" stop-color="#fff"/><stop offset=".147" stop-color="#fbfdf9"/><stop offset=".3439" stop-color="#f0f8e8"/><stop offset=".5683" stop-color="#ddf0cc"/><stop offset=".5974" stop-color="#daefc8"/><stop offset="1" stop-color="#aad3b9"/></radialGradient><radialGradient id="SVGID_19_" cx="178.033" cy="268.129" gradientTransform="matrix(-1 0 0 -1.984 356.066 799.989)" gradientUnits="userSpaceOnUse" r="110.756" xlink:href="#lg3"/><radialGradient id="SVGID_20_" cx="147.942" cy="268.258" gradientUnits="userSpaceOnUse" r="167.383"><stop offset="0" stop-color="#daefc8"/><stop offset=".5098" stop-color="#c1e29d"/><stop offset=".5981" stop-color="#bcdf95"/><stop offset=".6606" stop-color="#b7da92"/><stop offset=".7394" stop-color="#a7cd89"/><stop offset=".8271" stop-color="#8db77b"/><stop offset=".9204" stop-color="#699967"/><stop offset="1" stop-color="#457a52"/></radialGradient><radialGradient id="SVGID_21_" cx="103.984" cy="270.551" gradientUnits="userSpaceOnUse" r="310.272" xlink:href="#lg4"/><radialGradient id="SVGID_22_" cx="391.401" cy="2482.163" gradientTransform="matrix(.931 0 0 .112 -111.519 208.466)" gradientUnits="userSpaceOnUse" r="200.63"><stop offset="0" stop-color="#cbe2ff"/><stop offset=".1435" stop-color="#d6e8ff"/><stop offset=".4962" stop-color="#ecf4ff"/><stop offset=".8982" stop-color="#fff"/></radialGradient><g><path d="m166.833 160.016c13.774-24.076 21.019-51.333 21.019-79.07 0-14.829-2.071-29.585-6.154-43.841l-10.627-37.105h43.121s26.002 59.887 29.783 81.169c4.852 27.31-11.143 71.804-24.916 95.881z" fill="url(#SVGID_1_)"/><path d="m205.848 439.812-64.234 20.313v10.065c0 9.92 8.042 17.961 17.961 17.961h43.121c-7.914.001-.945-36.682 3.152-48.339z" fill="url(#SVGID_2_)"/><path d="m209.954 452.516s-16.526-263.612 0-292.499h-43.121c-16.526 28.887-25.219 61.59-25.219 94.87v205.239h66.599c1.039-2.954 1.741-5.605 1.741-7.61z" fill="url(#SVGID_3_)"/><path d="m324.148 80.946c0-14.829 2.071-29.585 6.154-43.841l10.627-37.105h-126.737l10.627 37.105c4.083 14.256 6.154 29.012 6.154 43.841 0 27.738-7.245 54.994-21.019 79.07l76.101 6.887 59.112-6.887c-13.774-24.076-21.019-51.332-21.019-79.07z" fill="url(#SVGID_4_)"/><path d="m345.167 160.016h-135.213c-16.526 28.887-25.219 61.59-25.219 94.87v215.304c0 9.92 8.042 17.961 17.961 17.961h149.728c9.92 0 17.961-8.042 17.961-17.961v-215.304c.001-33.28-8.692-65.982-25.218-94.87z" fill="url(#SVGID_5_)"/><path d="m295.808 329.514c-32.753 0-59.304 26.551-59.304 59.304s26.551 59.304 59.304 59.304h8.204c-32.753 0-32.753-118.608 0-118.608z" fill="url(#SVGID_6_)"/><circle cx="304.013" cy="388.818" fill="url(#SVGID_7_)" r="59.304"/><circle cx="304.013" cy="388.818" fill="url(#SVGID_8_)" r="53.282"/><path d="m259.795 363.401c.039-.067.078-.134.117-.201 2.869-4.928 9.688-5.714 13.72-1.681l20.935 20.935c.591.591.018 1.583-.789 1.367l-28.596-7.662c-5.524-1.481-8.242-7.803-5.387-12.758zm50.583 15.971 20.934-20.934c4.033-4.033 3.247-10.851-1.681-13.72-.067-.039-.134-.078-.201-.116-4.955-2.854-11.277-.137-12.757 5.386l-7.662 28.595c-.216.807.776 1.38 1.367.789zm33.6 17.899c5.56 1.49 11.022-2.696 11.029-8.453v-.114c-.006-5.699-5.413-9.843-10.918-8.368l-28.712 7.693c-.807.216-.807 1.362 0 1.579zm4.252-33.87c-.039-.067-.078-.135-.117-.202-2.869-4.928-9.688-5.714-13.72-1.681l-20.935 20.935c-.591.591-.018 1.583.789 1.367l28.596-7.662c5.525-1.48 8.242-7.802 5.387-12.757zm-84.183 16.965c-5.56-1.49-11.022 2.696-11.028 8.453.006 5.757 5.468 9.943 11.028 8.453l28.601-7.664c.807-.216.807-1.362 0-1.579zm12.665-21.928 20.935 20.936c.591.591 1.583.018 1.367-.789l-7.662-28.597c-1.48-5.524-7.802-8.241-12.757-5.386-.067.039-.135.078-.202.117-4.928 2.868-5.713 9.686-1.681 13.719zm54.601 60.761-20.934-20.934c-.591-.591-1.583-.018-1.367.789l7.662 28.596c1.48 5.524 7.802 8.241 12.757 5.386.067-.039.134-.077.201-.116 4.928-2.87 5.713-9.688 1.681-13.721zm-26.511-41.744 7.664-28.601c1.49-5.561-2.696-11.023-8.453-11.029-5.757.006-9.943 5.468-8.453 11.028l7.664 28.602c.216.807 1.362.807 1.578 0zm-1.578 22.727-7.664 28.602c-1.49 5.56 2.696 11.022 8.453 11.028h.115c5.699-.006 9.843-5.413 8.368-10.918l-7.693-28.712c-.217-.807-1.363-.807-1.579 0zm-5.576-1.918-20.935 20.936c-4.033 4.033-3.247 10.851 1.681 13.72.067.039.134.078.202.117 4.955 2.854 11.277.137 12.757-5.386l7.662-28.597c.216-.809-.776-1.381-1.367-.79zm-3.871-4.447-28.596 7.662c-5.524 1.48-8.241 7.802-5.386 12.757.039.067.078.134.117.201 2.869 4.928 9.688 5.714 13.72 1.681l20.935-20.935c.591-.59.018-1.583-.79-1.366zm19.681 1.367 20.935 20.935c4.033 4.033 10.851 3.247 13.72-1.681.039-.067.078-.134.117-.202 2.854-4.955.137-11.277-5.386-12.757l-28.596-7.662c-.808-.217-1.381.776-.79 1.367z" fill="url(#SVGID_9_)"/><path d="m281.955 170.016c-33.473 0-60.609 27.135-60.609 60.609s27.136 60.609 60.609 60.609h8.385c-33.473 0-33.473-121.218 0-121.218z" fill="url(#SVGID_10_)"/><circle cx="290.34" cy="230.625" fill="url(#SVGID_11_)" r="60.609"/><circle cx="290.34" cy="230.625" fill="url(#SVGID_12_)" r="54.454"/><path d="m245.149 204.649c.04-.069.079-.137.119-.206 2.932-5.037 9.901-5.84 14.022-1.718l21.395 21.395c.604.604.019 1.618-.807 1.397l-29.225-7.831c-5.644-1.512-8.421-7.973-5.504-13.037zm51.696 16.322 21.395-21.395c4.121-4.121 3.319-11.09-1.718-14.022-.068-.04-.137-.079-.206-.119-5.064-2.917-11.525-.14-13.037 5.505l-7.831 29.225c-.221.825.793 1.41 1.397.806zm34.339 18.293c5.683 1.523 11.265-2.756 11.271-8.639v-.117c-.006-5.824-5.532-10.06-11.158-8.552l-29.343 7.862c-.825.221-.825 1.392 0 1.613zm4.346-34.615c-.04-.069-.079-.138-.119-.206-2.932-5.037-9.901-5.84-14.022-1.718l-21.396 21.396c-.604.604-.019 1.618.807 1.397l29.226-7.831c5.645-1.513 8.421-7.974 5.504-13.038zm-86.035 17.337c-5.683-1.523-11.265 2.756-11.271 8.639.006 5.883 5.588 10.161 11.271 8.639l29.23-7.832c.825-.221.825-1.392 0-1.613zm12.944-22.41 21.396 21.396c.604.604 1.618.019 1.397-.807l-7.831-29.226c-1.513-5.645-7.973-8.422-13.037-5.505-.069.04-.138.079-.206.119-5.038 2.933-5.841 9.902-1.719 14.023zm55.801 62.099-21.395-21.395c-.604-.604-1.618-.019-1.397.807l7.831 29.225c1.513 5.645 7.973 8.422 13.037 5.505.069-.04.137-.079.206-.119 5.037-2.934 5.839-9.902 1.718-14.023zm-27.094-42.663 7.832-29.231c1.523-5.683-2.756-11.265-8.639-11.272-5.883.006-10.161 5.588-8.639 11.271l7.832 29.231c.222.826 1.393.826 1.614.001zm-1.613 23.227-7.832 29.231c-1.523 5.683 2.756 11.265 8.639 11.271h.117c5.824-.006 10.06-5.532 8.552-11.158l-7.863-29.344c-.221-.825-1.392-.825-1.613 0zm-5.698-1.961-21.396 21.396c-4.121 4.121-3.319 11.09 1.718 14.022.069.04.137.08.206.119 5.064 2.917 11.525.14 13.037-5.505l7.831-29.226c.222-.824-.792-1.41-1.396-.806zm-3.956-4.545-29.225 7.831c-5.645 1.513-8.422 7.973-5.505 13.038.04.069.079.137.119.206 2.932 5.037 9.901 5.84 14.022 1.718l21.395-21.395c.605-.605.019-1.619-.806-1.398zm20.114 1.398 21.396 21.396c4.121 4.121 11.09 3.319 14.022-1.718.04-.069.08-.137.119-.206 2.917-5.064.14-11.525-5.505-13.038l-29.226-7.831c-.825-.222-1.41.792-.806 1.397z" fill="url(#SVGID_13_)"/><path d="m184.829 248.898c-10.703 9.441-17.455 23.258-17.455 38.652 0 15.349 6.712 29.131 17.361 38.57l5.158-52.936s-5.126-22.293-5.064-24.286z" fill="url(#SVGID_14_)"/><path d="m226.026 236.027h-7.128c-13.061 0-24.987 4.861-34.068 12.871-.062 1.994-.094 3.99-.094 5.989v71.233c9.093 8.06 21.056 12.954 34.163 12.954h7.128c-28.457 0-28.457-103.047-.001-103.047z" fill="url(#SVGID_15_)"/><path d="m174.502 287.55c0 11.559 3.806 22.228 10.233 30.824l3.128-46.966-3.128-14.682c-6.427 8.596-10.233 19.266-10.233 30.824z" fill="url(#SVGID_16_)"/><path d="m226.026 236.027c-16.897 0-31.894 8.134-41.29 20.7v61.647c9.396 12.566 24.393 20.7 41.29 20.7 28.456 0 51.523-23.068 51.523-51.523s-23.068-51.524-51.523-51.524z" fill="url(#SVGID_17_)"/><path d="m179.734 287.55c0 7.54 1.803 14.658 5.001 20.949l1.876-28.042-1.876-13.855c-3.197 6.29-5.001 13.408-5.001 20.948z" fill="url(#SVGID_18_)"/><path d="m226.026 241.259c-18.026 0-33.645 10.304-41.29 25.343v41.897c7.645 15.039 23.264 25.343 41.29 25.343 25.566 0 46.291-20.725 46.291-46.291 0-25.567-20.725-46.292-46.291-46.292z" fill="url(#SVGID_19_)"/><path d="m181.722 287.55c.003 2.515 1.205 4.685 3.013 6.057l1.099-6.895-1.099-5.218c-1.808 1.371-3.01 3.541-3.013 6.056z" fill="url(#SVGID_20_)"/><path d="m199.631 263.832 18.188 18.188c.514.513.016 1.376-.686 1.188l-24.844-6.657c-4.799-1.286-7.159-6.778-4.68-11.083.034-.058.068-.117.101-.175 2.493-4.282 8.417-4.965 11.921-1.461zm4.312-14.698c-.058.034-.117.068-.175.101-4.282 2.493-4.964 8.417-1.461 11.92l18.189 18.189c.514.514 1.376.016 1.188-.686l-6.657-24.845c-1.287-4.799-6.778-7.159-11.084-4.679zm21.397 28.543c.188.702 1.183.702 1.372 0l6.658-24.849c1.295-4.831-2.343-9.577-7.344-9.582-5.001.005-8.638 4.751-7.344 9.582zm9.578 5.531 24.845-6.657c4.799-1.286 7.16-6.778 4.68-11.083-.034-.059-.067-.117-.101-.175-2.493-4.282-8.417-4.964-11.92-1.461l-18.188 18.189c-.516.512-.018 1.375.684 1.187zm-3.362-3.865 18.188-18.188c3.503-3.504 2.821-9.427-1.461-11.92-.058-.034-.116-.068-.175-.101-4.305-2.48-9.797-.119-11.083 4.68l-6.657 24.844c-.188.701.675 1.199 1.188.685zm-40.252 15.551 24.849-6.658c.702-.188.702-1.183 0-1.371l-24.849-6.658c-2.401-.643-4.781-.068-6.568 1.287v12.113c1.787 1.355 4.166 1.93 6.568 1.287zm68.458 3.655-24.845-6.657c-.702-.188-1.199.674-.686 1.188l18.188 18.189c3.503 3.503 9.427 2.821 11.92-1.461.034-.058.068-.117.101-.175 2.482-4.306.121-9.798-4.678-11.084zm-28.206-2.792c-.514-.514-1.376-.016-1.188.686l6.657 24.844c1.286 4.799 6.778 7.16 11.083 4.68.058-.033.117-.067.175-.101 4.282-2.493 4.964-8.416 1.461-11.92zm38.773-8.306c-.005-4.951-4.703-8.552-9.486-7.27l-24.945 6.684c-.702.188-.702 1.183 0 1.371l24.849 6.658c4.831 1.294 9.576-2.343 9.582-7.344zm-53.196 4.441-24.844 6.657c-4.799 1.286-7.159 6.778-4.68 11.083.034.058.068.117.101.175 2.493 4.282 8.416 4.964 11.92 1.461l18.188-18.188c.515-.513.017-1.376-.685-1.188zm9.579 5.531c-.188-.702-1.183-.702-1.372 0l-6.658 24.849c-1.294 4.831 2.343 9.576 7.344 9.581h.1c4.951-.005 8.552-4.703 7.27-9.486zm-6.216-1.667-18.189 18.189c-3.503 3.503-2.821 9.427 1.461 11.92.058.034.117.068.175.102 4.305 2.48 9.797.119 11.083-4.68l6.657-24.845c.189-.702-.674-1.199-1.187-.686z" fill="url(#SVGID_21_)"/><path d="m256 512c107.505 0 194.655-10.677 194.655-23.848h-389.31c0 13.171 87.15 23.848 194.655 23.848z" fill="url(#SVGID_22_)"/></g></svg>